<svg width="24" height="24" viewBox="0 0 24 24" fill="none" xmlns="http://www.w3.org/2000/svg">
<path d="M20 4.00012H4C2.897 4.00012 2 4.89712 2 6.00012V18.0001C2 19.1031 2.897 20.0001 4 20.0001H20C21.103 20.0001 22 19.1031 22 18.0001V6.00012C22 4.89712 21.103 4.00012 20 4.00012ZM20 6.00012V6.51112L12 12.7341L4 6.51212V6.00012H20ZM4 18.0001V9.04412L11.386 14.7891C11.5611 14.9267 11.7773 15.0014 12 15.0014C12.2227 15.0014 12.4389 14.9267 12.614 14.7891L20 9.04412L20.002 18.0001H4Z" fill="white"/>
</svg>
